# xmcd CD database file
#
# Track frame offsets:
#	150
#	21087
#	40124
#	61112
#	71346
#	91165
#	104728
#	117376
#	133374
#	148257
#	162461
#	199820
#	221582
#
# Disc length: 3260 seconds
#
# Revision: 0
# Processed by: cddbd v1.5.2PL0 Copyright (c) Steve Scherf et al.
# Submitted via: CDex 1.51
#
DISCID=c50cba0d
DTITLE=Lubos Bena and Matej Ptaszek - Bena and Ptaszek V Kriminale
DYEAR=2009
DGENRE=Blues
TTITLE0=Midnight Special
TTITLE1=Baby Please Don't Go
TTITLE2=Diggin' My Potatoes
TTITLE3=Cotton Song
TTITLE4=Come On My Kitchen
TTITLE5=Take This Hammer
TTITLE6=You Got To Move
TTITLE7=My Babe
TTITLE8=Goin' Down South
TTITLE9=You Are My Sunshine
TTITLE10=Got My Mojo Working
TTITLE11=Pick A Bale Of Cotton
TTITLE12=Stormy Monday
EXTD=YEAR: 2009
EXTT0=
EXTT1=
EXTT2=
EXTT3=
EXTT4=
EXTT5=
EXTT6=
EXTT7=
EXTT8=
EXTT9=
EXTT10=
EXTT11=
EXTT12=
PLAYORDER=
